<svg width="382" height="191" viewBox="0 0 382 191" fill="none" xmlns="http://www.w3.org/2000/svg">
<path fill-rule="evenodd" clip-rule="evenodd" d="M23.0633 38.9945C22.5648 39.1053 22.156 39.2715 22.156 39.3632C22.156 39.4558 21.7483 39.7394 21.2488 39.9944C20.076 40.5942 18.9434 41.9694 18.5872 43.2271C18.3446 44.0828 18.3103 49.2207 18.3294 81.175C18.3561 123.852 18.4554 127.849 19.5479 130.019C19.801 130.521 20.1343 131.489 20.289 132.172C20.4437 132.855 20.7933 133.739 21.0645 134.137C21.3357 134.536 21.6995 135.289 21.8724 135.811C22.0462 136.333 22.3489 136.846 22.5466 136.952C22.7434 137.057 23.0471 137.443 23.2209 137.809C23.6296 138.672 25.4221 140.678 26.5366 141.522C27.016 141.885 27.4945 142.291 27.5995 142.424C27.7046 142.556 28.1334 142.806 28.5526 142.979C28.9719 143.153 29.5516 143.493 29.8409 143.736C30.1656 144.009 30.9344 144.299 31.8483 144.491C32.6629 144.663 33.9312 144.983 34.6665 145.201C38.7014 146.399 46.2631 145.531 47.2105 143.761C47.3184 143.558 47.6966 143.014 48.0509 142.55C49.4327 140.739 49.5684 135.484 48.2667 134.158C48.0356 133.922 47.6459 133.465 47.4015 133.141C47.157 132.819 46.8409 132.554 46.6995 132.554C46.5582 132.554 46.1628 132.319 45.8209 132.031C45.2031 131.511 45.1782 131.507 41.5492 131.398C39.5418 131.338 37.7732 131.214 37.6194 131.121C36.8392 130.653 35.2558 129.131 34.9339 128.543C34.7334 128.175 34.3991 127.66 34.19 127.397C33.3668 126.361 33.3725 126.614 33.3238 84.8756L33.277 44.9327L32.7623 43.7151C31.7376 41.2932 31.3699 40.8148 29.775 39.8235C29.606 39.7184 29.244 39.4739 28.97 39.2801C28.3654 38.8532 24.5292 38.667 23.0633 38.9945ZM83.1805 70.7779C78.7512 71.2353 77.4687 71.4512 76.4 71.9182C75.8223 72.1703 74.7603 72.5093 74.0402 72.6717C73.3202 72.8331 72.518 73.1329 72.2573 73.3382C71.9975 73.5426 71.2975 73.8922 70.7016 74.1137C70.1066 74.3362 69.4476 74.6781 69.2366 74.8748C69.0265 75.0716 68.3685 75.4545 67.7754 75.7257C67.1814 75.9979 66.6457 76.3503 66.5846 76.5098C66.5234 76.6693 66.1663 76.9281 65.79 77.0847C64.9505 77.4352 61.8153 79.9087 60.8775 80.9601C60.7476 81.1053 60.3178 81.578 59.9196 82.0106C58.8385 83.19 57.1109 85.4438 57.11 85.6778C57.11 85.7905 56.8846 86.0913 56.6105 86.3463C56.3374 86.6013 55.9029 87.2813 55.646 87.8581C55.3891 88.4349 55.0233 89.0795 54.8323 89.2906C54.6413 89.5016 54.329 90.1806 54.139 90.7985C53.9489 91.4174 53.5946 92.1594 53.3521 92.4478C53.0904 92.7582 52.7953 93.5231 52.6263 94.3292C52.4687 95.075 52.1268 96.0949 51.8661 96.5954C51.5252 97.2505 51.3074 98.1663 51.0878 99.8624C50.9197 101.158 50.6513 102.92 50.4918 103.778C49.8463 107.25 49.8119 110.899 50.4078 112.863C50.5167 113.221 50.7908 114.811 51.0171 116.396C51.3256 118.557 51.5423 119.476 51.8842 120.064C52.1344 120.496 52.4993 121.581 52.6941 122.476C52.9166 123.494 53.1964 124.248 53.4418 124.494C53.6567 124.709 53.9852 125.386 54.1696 125.998C54.3548 126.61 54.7005 127.325 54.9374 127.588C55.1752 127.851 55.5829 128.548 55.8437 129.138C56.1044 129.728 56.4386 130.257 56.5876 130.315C56.7366 130.371 57.0135 130.746 57.2045 131.148C57.3946 131.549 57.8014 132.138 58.108 132.455C60.0256 134.442 62.8438 137.247 63.412 137.736C64.8646 138.986 65.9256 139.812 66.0784 139.812C66.1672 139.812 66.7421 140.183 67.3562 140.638C67.9712 141.093 68.7553 141.577 69.0991 141.714C69.4429 141.851 69.7905 142.081 69.8707 142.225C69.9509 142.369 70.5297 142.666 71.1552 142.883C71.7817 143.101 72.6469 143.484 73.0786 143.734C73.5112 143.985 74.6285 144.358 75.5616 144.563C76.4955 144.768 77.6721 145.114 78.1763 145.332C81.2343 146.652 95.6863 146.618 98.8798 145.283C99.49 145.028 100.675 144.679 101.516 144.507C102.355 144.335 103.343 143.996 103.712 143.753C104.08 143.511 104.87 143.159 105.467 142.972C106.065 142.785 106.735 142.464 106.954 142.259C107.175 142.053 107.76 141.708 108.256 141.49C108.752 141.272 109.413 140.88 109.728 140.618C110.043 140.355 110.667 139.983 111.117 139.79C111.566 139.598 111.985 139.306 112.048 139.142C112.111 138.977 112.432 138.707 112.761 138.54C113.368 138.233 113.614 138.016 115.651 135.995C117.065 134.592 117.935 133.589 118.391 132.84C118.583 132.525 118.89 132.143 119.073 131.992C119.257 131.842 119.655 131.225 119.959 130.622C120.263 130.018 120.61 129.466 120.729 129.392C120.849 129.318 121.157 128.775 121.415 128.184C121.674 127.594 122.084 126.81 122.328 126.442C122.572 126.074 122.876 125.321 123.003 124.769C123.13 124.216 123.438 123.464 123.686 123.099C123.962 122.691 124.259 121.784 124.449 120.761C124.621 119.841 124.972 118.585 125.23 117.97C126.467 115.025 126.517 101.521 125.301 99.1376C125.1 98.7441 124.759 97.5427 124.544 96.4674C124.31 95.2975 123.998 94.3167 123.77 94.0264C123.559 93.759 123.217 92.9692 123.01 92.2721C122.802 91.574 122.417 90.7126 122.154 90.3563C121.891 90.0001 121.578 89.3994 121.458 89.0232C121.338 88.6459 121.046 88.1226 120.809 87.86C120.574 87.5974 120.135 86.9527 119.835 86.4275C119.535 85.9022 119.1 85.3197 118.866 85.1335C118.633 84.9463 118.383 84.6025 118.31 84.3695C118.238 84.1355 117.867 83.6293 117.487 83.2435C117.108 82.8577 116.645 82.385 116.458 82.193C115.358 81.0556 114.416 80.22 114.231 80.22C114.114 80.22 113.918 79.9984 113.794 79.7272C113.671 79.456 113.239 79.0654 112.834 78.8591C112.429 78.6528 112.049 78.3558 111.989 78.1992C111.929 78.0416 111.611 77.7761 111.282 77.6071C110.954 77.4381 110.206 76.9252 109.623 76.4678C109.038 76.0103 108.46 75.636 108.34 75.636C108.219 75.636 107.837 75.3905 107.492 75.0907C107.147 74.7908 106.426 74.4012 105.891 74.2254C105.357 74.0497 104.641 73.7012 104.302 73.4509C103.963 73.2007 103.068 72.8474 102.315 72.6659C101.56 72.4835 100.557 72.1426 100.084 71.9077C99.0574 71.3967 98.769 71.348 93.9291 70.8591C89.6602 70.4284 86.7761 70.4064 83.1805 70.7779ZM258.996 70.6948C253.575 71.3232 252.839 71.4502 251.92 71.9153C251.402 72.1789 250.396 72.5275 249.687 72.6917C248.976 72.856 248.224 73.1444 248.014 73.3335C247.803 73.5235 247.116 73.8664 246.486 74.0975C245.855 74.3286 245.168 74.6743 244.958 74.8643C244.747 75.0553 244.108 75.4459 243.535 75.7324C242.963 76.0189 242.337 76.4535 242.145 76.6979C241.953 76.9415 241.605 77.1984 241.372 77.2671C241.138 77.3359 240.689 77.6463 240.374 77.9557C239.728 78.5907 238.456 79.5906 237.318 80.3565C236.897 80.6392 235.952 81.5493 235.217 82.3792C234.481 83.2082 233.677 84.1154 233.43 84.3933C233.183 84.6722 232.819 85.2175 232.62 85.6052C232.421 85.9939 232.136 86.3807 231.985 86.4647C231.834 86.5497 231.53 87.0377 231.311 87.5506C231.091 88.0634 230.705 88.7281 230.452 89.0289C230.199 89.3288 229.85 90.0698 229.678 90.6753C229.505 91.2798 229.162 92.0763 228.915 92.444C228.66 92.8269 228.331 93.8058 228.148 94.736C227.972 95.6289 227.66 96.7453 227.454 97.2171C227.185 97.834 226.925 99.4947 226.528 103.138L225.976 108.201L226.13 140.003C226.304 176.1 226.188 173.655 227.785 175.23C228.248 175.687 228.627 176.138 228.627 176.234C228.627 176.33 229.036 176.546 229.534 176.714C234.504 178.388 239.371 177.335 240.252 174.394C240.377 173.976 240.568 173.58 240.677 173.513C241.227 173.173 241.264 171.976 241.244 154.858C241.222 135.373 241.143 136.565 242.447 136.565C242.905 136.565 243.907 137.342 243.907 137.698C243.907 137.806 244.255 138.072 244.681 138.289C245.106 138.506 245.502 138.809 245.561 138.962C245.619 139.116 246.174 139.554 246.793 139.936C247.412 140.318 247.918 140.709 247.918 140.804C247.918 140.901 248.394 141.189 248.974 141.446C249.556 141.703 250.078 142.036 250.136 142.185C250.193 142.335 250.814 142.687 251.515 142.965C252.216 143.245 252.932 143.602 253.107 143.759C253.282 143.917 254.227 144.258 255.207 144.52C256.186 144.781 257.246 145.153 257.562 145.346C259.731 146.674 273.342 146.673 275.518 145.346C275.834 145.153 276.865 144.805 277.81 144.57C278.755 144.335 279.75 143.96 280.02 143.737C280.292 143.514 281.052 143.167 281.712 142.967C282.372 142.768 282.958 142.482 283.015 142.333C283.072 142.184 283.681 141.811 284.368 141.502C285.054 141.195 285.726 140.786 285.859 140.594C285.993 140.403 286.385 140.135 286.731 139.997C287.42 139.724 287.56 139.6 290.565 136.609C293.413 133.774 293.949 133.184 293.949 132.882C293.949 132.738 294.173 132.413 294.446 132.158C294.719 131.903 295.157 131.265 295.421 130.739C295.684 130.214 296.099 129.57 296.34 129.307C296.583 129.044 296.873 128.481 296.986 128.054C297.099 127.628 297.441 126.898 297.745 126.431C298.05 125.964 298.44 125.067 298.614 124.436C298.787 123.806 299.139 122.861 299.396 122.335C299.674 121.766 300.019 120.443 300.25 119.059C300.464 117.782 300.773 116.413 300.94 116.016C301.787 113.988 301.719 103.556 300.843 101.303C300.634 100.765 300.323 99.3467 300.15 98.1511C299.939 96.6851 299.694 95.7292 299.398 95.2135C299.158 94.7933 298.781 93.8134 298.563 93.0361C298.343 92.2597 297.991 91.4384 297.779 91.213C297.567 90.9867 297.218 90.2933 297.004 89.6716C296.79 89.0499 296.412 88.3232 296.163 88.0577C295.914 87.7912 295.657 87.393 295.59 87.1724C295.524 86.9518 295.085 86.2747 294.614 85.6692C294.143 85.0628 293.758 84.5051 293.758 84.4296C293.758 84.3542 293.412 83.913 292.989 83.4498C292.567 82.9866 291.901 82.2503 291.509 81.8139C291.117 81.3774 290.678 80.9047 290.532 80.7634C290.386 80.622 289.903 80.1417 289.459 79.6947C289.014 79.2487 288.561 78.883 288.451 78.883C288.341 78.883 288.008 78.6194 287.71 78.2966C287.412 77.9738 286.776 77.5078 286.297 77.2614C285.818 77.014 285.305 76.6674 285.158 76.4907C285.012 76.3131 284.458 75.9769 283.929 75.742C283.4 75.508 282.851 75.1766 282.711 75.0057C282.569 74.8347 281.968 74.5148 281.374 74.2942C280.779 74.0736 279.992 73.6916 279.624 73.4452C279.256 73.1988 278.27 72.812 277.431 72.5857C276.594 72.3603 275.648 72.0184 275.33 71.8274C273.846 70.9345 263.26 70.2001 258.996 70.6948ZM144.874 70.9756C143.521 71.1714 142.541 71.5476 141.968 72.0929C141.631 72.4129 141.173 72.8474 140.948 73.0575C140.451 73.5254 139.738 74.5511 139.289 75.445C138.621 76.7724 138.744 116.57 139.421 118.717C139.52 119.026 139.725 119.623 139.879 120.043C140.033 120.464 140.3 121.796 140.474 123.004C140.683 124.46 140.912 125.372 141.156 125.712C141.357 125.993 141.692 126.838 141.901 127.589C142.109 128.341 142.544 129.355 142.867 129.844C143.191 130.332 143.507 130.949 143.568 131.213C143.63 131.478 143.871 131.909 144.103 132.172C144.335 132.435 144.767 133.079 145.063 133.604C145.359 134.13 145.892 134.903 146.246 135.323C147.009 136.229 148.205 137.567 148.575 137.93C149.973 139.303 150.321 139.61 150.718 139.822C150.97 139.955 151.614 140.395 152.149 140.798C152.684 141.202 153.218 141.531 153.336 141.531C153.454 141.531 153.833 141.776 154.178 142.076C154.523 142.376 155.259 142.771 155.814 142.953C156.369 143.135 157.056 143.477 157.342 143.713C157.64 143.96 158.392 144.245 159.103 144.384C160.713 144.697 161.507 144.928 162.446 145.355C165.184 146.603 177.923 146.532 180.877 145.254C181.455 145.003 182.595 144.657 183.41 144.482C184.229 144.307 185.209 143.951 185.599 143.686C185.986 143.424 186.684 143.093 187.15 142.953C187.616 142.814 188.322 142.437 188.72 142.117C189.119 141.797 189.651 141.441 189.904 141.326C190.157 141.211 190.508 140.872 190.685 140.573C190.875 140.252 191.488 139.789 192.186 139.44C193.64 138.714 193.728 138.777 194.178 140.862C194.534 142.503 195.769 144.136 196.921 144.486C197.184 144.565 197.909 144.899 198.532 145.228C200.381 146.2 202.71 146.113 204.999 144.984C207.105 143.947 207.862 142.924 208.778 139.885C209.066 138.931 208.919 76.3398 208.628 75.9893C208.501 75.8365 208.153 75.1394 207.855 74.4394C207.444 73.4777 207.116 73.025 206.509 72.5857C206.068 72.2658 205.707 71.9258 205.707 71.8303C205.707 71.3652 203.675 70.9632 201.314 70.9593C198.188 70.9555 197.631 71.137 196.084 72.6592C193.939 74.7746 194.165 72.0796 194.056 96.7415C193.961 118.178 193.958 118.331 193.557 119.279C193.335 119.805 193.008 120.891 192.833 121.693C192.635 122.591 192.366 123.283 192.131 123.495C191.922 123.685 191.594 124.189 191.403 124.616C190.789 125.987 187.766 128.81 185.897 129.758C185.381 130.018 184.851 130.363 184.718 130.523C184.585 130.683 184.032 130.954 183.489 131.125C182.946 131.297 181.985 131.686 181.355 131.991C178.592 133.326 169.556 133.319 166.945 131.979C166.361 131.68 165.524 131.341 165.085 131.227C164.647 131.112 163.93 130.719 163.491 130.354C163.054 129.988 162.589 129.689 162.458 129.689C162.248 129.689 160.861 128.532 160.058 127.688C159.9 127.523 159.507 127.11 159.183 126.771C158.86 126.432 158.437 125.898 158.244 125.582C158.051 125.267 157.747 124.905 157.569 124.778C157.393 124.652 157.054 124.094 156.818 123.537C156.582 122.981 156.219 122.342 156.012 122.116C155.804 121.89 155.437 120.945 155.194 120.015C154.952 119.086 154.61 117.992 154.433 117.586C153.874 116.297 153.78 113.043 153.766 94.6357C153.753 76.0342 153.745 75.8747 152.92 74.7927C152.663 74.4556 152.324 73.8702 152.167 73.4939C152.009 73.1167 151.704 72.7519 151.489 72.6841C151.274 72.6153 150.901 72.3259 150.66 72.0404C149.964 71.2162 146.995 70.67 144.874 70.9756ZM320.261 71.1322C318.535 71.6307 316.24 73.9428 315.935 75.4908C315.675 76.8068 315.519 120.001 315.73 131.981C315.899 141.583 315.967 142.225 316.887 142.88C317.185 143.093 317.539 143.494 317.674 143.77C317.81 144.046 318.175 144.357 318.488 144.46C318.8 144.563 319.488 144.906 320.016 145.221C321.47 146.091 324.052 146.081 325.865 145.197C326.554 144.862 327.204 144.587 327.31 144.587C327.805 144.587 329.1 143.037 329.784 141.626L330.526 140.098V108.679V77.2595L330.115 76.3045C329.89 75.7792 329.521 74.872 329.296 74.2885C329.018 73.5646 328.708 73.1205 328.323 72.8932C328.013 72.7099 327.669 72.3928 327.56 72.1884C326.965 71.0778 322.624 70.4494 320.261 71.1322ZM92.5682 84.2348C94.9777 84.5442 95.7436 84.7171 96.4426 85.1115C96.922 85.3818 97.8484 85.7695 98.5016 85.9729C99.1539 86.1763 99.7994 86.502 99.936 86.6968C100.073 86.8916 100.588 87.2411 101.082 87.4732C101.576 87.7053 102.03 88.0548 102.092 88.2496C102.154 88.4444 102.39 88.6631 102.618 88.7357C102.977 88.8494 104.123 89.9419 106.008 91.9665C106.301 92.2816 106.599 92.7353 106.67 92.974C106.74 93.2137 107.003 93.5432 107.254 93.7074C107.51 93.8755 107.884 94.4724 108.108 95.0702C108.327 95.6556 108.704 96.37 108.946 96.6584C109.189 96.9458 109.532 97.7566 109.708 98.4586C109.884 99.1605 110.156 99.9302 110.313 100.169C111.648 102.206 111.72 113.842 110.415 116.605C110.117 117.236 109.766 118.212 109.634 118.775C109.501 119.343 109.163 120.065 108.873 120.399C108.586 120.728 108.246 121.32 108.118 121.714C107.99 122.108 107.591 122.782 107.232 123.212C106.872 123.643 106.578 124.079 106.578 124.182C106.578 124.393 105.865 125.177 103.962 127.059C101.875 129.124 101.75 129.229 100.848 129.686C100.375 129.926 99.9456 130.186 99.893 130.264C99.7135 130.529 98.4615 131.216 98.1549 131.216C97.9869 131.217 97.2993 131.505 96.6269 131.858C93.3102 133.596 83.5654 133.719 80.6221 132.06C80.1379 131.787 79.2087 131.397 78.5555 131.194C77.9032 130.991 77.2586 130.667 77.123 130.474C76.9883 130.282 76.4268 129.896 75.8748 129.617C75.3238 129.338 74.872 129.037 74.872 128.947C74.872 128.858 74.5502 128.569 74.1558 128.305C73.2247 127.683 70.9355 125.389 70.3864 124.529C70.1505 124.16 69.8163 123.74 69.6434 123.597C69.4706 123.453 69.164 122.963 68.9625 122.508C68.761 122.053 68.4287 121.5 68.2233 121.279C68.018 121.06 67.7009 120.39 67.5195 119.792C67.3371 119.195 66.9761 118.39 66.7163 118.004C66.3716 117.492 66.1414 116.688 65.8673 115.043C65.6611 113.802 65.3574 112.321 65.1941 111.754C64.7758 110.306 64.7729 105.847 65.1883 104.668C65.3545 104.195 65.662 102.785 65.8702 101.535C66.1338 99.9531 66.3745 99.0917 66.659 98.7059C66.8844 98.4013 67.2435 97.621 67.4565 96.9726C67.6694 96.3241 68.0925 95.5095 68.3971 95.1629C68.7018 94.8152 68.951 94.4055 68.951 94.2527C68.951 94.099 69.2356 93.6501 69.5842 93.2567C69.9328 92.8623 70.4256 92.2387 70.6796 91.871C71.5429 90.6218 74.5894 87.9688 75.722 87.4799C76.1479 87.2956 76.6608 86.9604 76.8632 86.734C77.0657 86.5077 77.7103 86.1849 78.2957 86.0168C78.8811 85.8487 79.7043 85.5155 80.1245 85.2757C81.049 84.7495 81.4997 84.6483 84.804 84.2224C88.2325 83.7802 89.0376 83.7812 92.5682 84.2348ZM267.345 84.2338C269.918 84.5633 270.556 84.7142 271.698 85.2643C272.433 85.6186 273.265 85.9605 273.545 86.0245C273.826 86.0885 274.299 86.3444 274.596 86.5927C274.893 86.841 275.591 87.2746 276.147 87.5553C276.704 87.8371 277.209 88.1952 277.269 88.3537C277.329 88.5113 277.716 88.8121 278.128 89.0222C278.538 89.2314 278.962 89.5943 279.068 89.8273C279.175 90.0613 279.516 90.3974 279.826 90.576C280.137 90.7546 280.473 91.1137 280.572 91.3753C280.672 91.637 280.976 91.997 281.248 92.1756C281.522 92.3542 281.883 92.7677 282.051 93.0934C282.219 93.419 282.598 93.9863 282.893 94.354C283.188 94.7217 283.561 95.3959 283.721 95.8514C283.881 96.3079 284.222 96.9306 284.479 97.2352C284.78 97.5924 285.055 98.3163 285.255 99.2713C285.425 100.086 285.725 101.107 285.922 101.539C286.878 103.641 287.019 111.932 286.138 114.313C285.905 114.944 285.516 116.256 285.274 117.23C285.032 118.203 284.692 119.157 284.518 119.348C284.345 119.54 283.989 120.242 283.729 120.908C283.468 121.573 283.095 122.296 282.903 122.514C282.709 122.731 282.348 123.252 282.099 123.672C281.592 124.531 281.329 124.833 279.431 126.728C277.378 128.78 276.735 129.319 275.818 129.76C275.353 129.983 274.787 130.35 274.56 130.573C274.333 130.798 273.644 131.127 273.027 131.307C272.411 131.485 271.704 131.792 271.456 131.987C269.747 133.33 258.842 133.325 256.56 131.977C256.215 131.774 255.468 131.472 254.9 131.308C254.332 131.142 253.582 130.797 253.233 130.541C252.883 130.284 252.297 129.934 251.929 129.764C251.561 129.593 250.943 129.185 250.557 128.855C250.169 128.526 249.394 127.891 248.835 127.443C248.274 126.995 247.388 126.113 246.865 125.483C246.341 124.852 245.633 124.025 245.292 123.644C244.951 123.263 244.671 122.844 244.671 122.712C244.671 122.581 244.364 122.026 243.987 121.479C243.611 120.933 243.176 120.061 243.023 119.543C242.87 119.025 242.54 118.303 242.292 117.937C242.024 117.541 241.746 116.71 241.608 115.887C241.481 115.127 241.251 113.903 241.096 113.167C240.943 112.432 240.729 111.401 240.622 110.875C240.384 109.707 240.518 105.482 240.81 104.935C240.926 104.718 241.204 103.472 241.426 102.168C241.7 100.555 241.979 99.5406 242.299 98.9924C242.558 98.5493 242.939 97.6401 243.145 96.9707C243.352 96.3012 243.701 95.5907 243.92 95.3921C244.141 95.1934 244.445 94.7341 244.596 94.3721C244.746 94.0111 245.15 93.3646 245.493 92.9358C245.837 92.508 246.259 91.9426 246.433 91.68C246.753 91.1967 248.276 89.6 249.465 88.5017C249.822 88.1723 250.476 87.7215 250.917 87.4999C251.358 87.2793 251.923 86.8926 252.174 86.6424C252.426 86.3912 253.134 86.0397 253.751 85.8602C254.367 85.6816 255.07 85.3789 255.313 85.1879C255.887 84.7352 257.046 84.4716 259.856 84.1527C263.072 83.7879 263.927 83.7974 267.345 84.2338Z" fill="#F6FAFB"/>
<path fill-rule="evenodd" clip-rule="evenodd" d="M360.512 12.9641C360.197 13.0482 359.605 13.3461 359.197 13.6259C358.788 13.9048 358.343 14.134 358.207 14.134C358.071 14.134 357.769 14.4138 357.534 14.7547C357.3 15.0957 356.959 15.5044 356.777 15.662C356.595 15.8196 356.3 16.4642 356.121 17.0945C355.944 17.7248 355.593 18.6273 355.343 19.1C355.093 19.5727 354.76 20.4389 354.601 21.0253C354.442 21.6107 354.102 22.4024 353.843 22.7834C353.584 23.1654 353.288 23.7824 353.185 24.1548C353.083 24.5273 352.745 25.1547 352.435 25.5472C352.126 25.9407 351.689 26.6244 351.465 27.0676C351.24 27.5107 350.881 27.9672 350.666 28.0818C350.452 28.1973 350.195 28.5048 350.095 28.7646C349.996 29.0253 349.657 29.3853 349.34 29.5649C349.024 29.7444 348.723 30.0204 348.671 30.178C348.531 30.6087 345.72 33.1165 343.493 34.8002C340.998 36.6854 340.588 36.968 339.779 37.3605C339.302 37.5926 338.804 37.9106 338.674 38.0672C338.544 38.2239 337.946 38.5486 337.346 38.7883C336.746 39.027 336.031 39.4071 335.756 39.6325C335.482 39.8569 334.751 40.1998 334.133 40.3927C333.515 40.5856 332.678 40.9513 332.274 41.2044C331.522 41.6771 329.483 42.2014 328.378 42.2081C328.037 42.2091 327.263 42.3762 326.659 42.5787C323.585 43.6082 315.772 43.6263 312.722 42.6121C312.114 42.4096 310.77 42.1432 309.737 42.02C307.711 41.7793 306.922 41.5692 306.173 41.0707C305.91 40.896 305.137 40.6018 304.454 40.4175C303.771 40.2332 302.952 39.8827 302.633 39.6401C302.314 39.3966 301.626 39.0547 301.105 38.88C300.583 38.7052 299.727 38.2821 299.201 37.9402C298.676 37.5983 297.964 37.2049 297.618 37.0645C297.272 36.9251 296.886 36.6682 296.759 36.4934C296.632 36.3186 296.141 35.9796 295.668 35.739C295.195 35.4973 294.594 35.1077 294.331 34.8709C294.068 34.634 293.53 34.2472 293.134 34.0114C292.74 33.7755 292.328 33.4174 292.22 33.2168C292.113 33.0163 291.9 32.852 291.747 32.852C291.593 32.852 291.144 32.5636 290.751 32.2112C290.356 31.8588 289.819 31.4596 289.556 31.324C289.293 31.1893 288.626 30.7806 288.073 30.4167L287.067 29.7549L284.893 29.8237C283.266 29.8753 282.629 29.9688 282.365 30.1942C282.171 30.3594 281.625 30.7166 281.152 30.9869C278.338 32.5941 277.214 36.48 278.664 39.5771C279.562 41.4928 283.648 45.84 284.551 45.84C284.662 45.84 284.995 46.0807 285.292 46.3748C285.589 46.6689 286.324 47.1904 286.926 47.5323C287.528 47.8751 288.071 48.238 288.133 48.3383C288.195 48.4385 288.659 48.7308 289.163 48.9867C289.669 49.2417 290.124 49.5645 290.178 49.702C290.23 49.8395 290.778 50.1575 291.395 50.4068C292.012 50.657 292.707 51.0333 292.94 51.2434C293.174 51.4535 293.861 51.7916 294.468 51.995C295.076 52.1984 295.787 52.5632 296.05 52.8058C296.313 53.0483 297.043 53.3912 297.673 53.5679C298.304 53.7445 299.138 54.0969 299.526 54.35C299.915 54.6031 300.891 54.986 301.695 55.2019C302.499 55.4177 303.498 55.7672 303.914 55.9802C304.404 56.2294 305.667 56.4997 307.474 56.7413C309.014 56.9476 311.178 57.2608 312.283 57.4385C315.493 57.9551 322.826 57.9093 325.464 57.3554C326.567 57.1243 328.716 56.7996 330.239 56.6334C331.762 56.4672 333.266 56.2103 333.581 56.0614C334.851 55.4626 335.681 55.1942 336.893 54.9889C337.686 54.8542 338.482 54.5668 339.003 54.2268C339.464 53.926 340.351 53.5793 340.975 53.4571C341.599 53.3339 342.425 53.0187 342.812 52.7561C343.197 52.4944 343.886 52.1525 344.341 51.9969C344.795 51.8422 345.599 51.4239 346.126 51.0696C346.654 50.7143 347.193 50.424 347.325 50.424C347.457 50.424 347.966 50.1184 348.455 49.745C348.945 49.3706 349.648 48.938 350.019 48.7833C350.389 48.6286 350.742 48.3727 350.803 48.2141C350.863 48.0565 351.182 47.7891 351.511 47.6211C352.868 46.9249 359.767 40.3125 360.494 39.0098C360.596 38.8274 360.873 38.5256 361.107 38.3404C361.342 38.1551 361.632 37.711 361.75 37.3529C361.868 36.9957 362.175 36.565 362.432 36.397C362.69 36.2279 362.9 35.9596 362.9 35.8001C362.9 35.4343 363.603 34.0238 364.035 33.5205C364.216 33.3104 364.513 32.7355 364.693 32.2437C364.875 31.7509 365.276 31.0308 365.585 30.6412C365.894 30.2525 366.147 29.7712 366.147 29.5716C366.147 29.1857 366.794 27.7924 367.196 27.313C367.327 27.1554 367.54 26.5538 367.669 25.976C367.798 25.3982 368.143 24.5817 368.435 24.1615C369.633 22.4387 369.654 17.7687 368.47 16.2732C368.151 15.8711 367.785 15.3115 367.657 15.0288C367.528 14.7471 367.338 14.516 367.234 14.516C367.13 14.516 366.436 14.1655 365.693 13.7367C364.262 12.9116 361.98 12.5707 360.512 12.9641Z" fill="#55BCAA"/>
</svg>
